<svg width="50" height="50" viewBox="0 0 50 50" fill="none" xmlns="http://www.w3.org/2000/svg">
<path d="M47.9167 38.4615C46.7667 38.4615 45.8333 37.6 45.8333 36.5385V3.84615H14.5833C13.4323 3.84615 12.5 2.98462 12.5 1.92308C12.5 0.861538 13.4323 0 14.5833 0H45.8333C48.1344 0 50 1.72212 50 3.84615V36.5385C50 37.6 49.0677 38.4615 47.9167 38.4615ZM37.5 15.3846V46.1538C37.5 48.2779 35.6344 50 33.3333 50H4.16667C1.86562 50 0 48.2779 0 46.1538V15.3846C0 13.2606 1.86562 11.5385 4.16667 11.5385H33.3333C35.6344 11.5385 37.5 13.2606 37.5 15.3846ZM4.16667 46.1538H33.3333V15.3846H4.16667V46.1538Z" fill="#000000"/>
</svg>
