<svg width="50" height="50" viewBox="0 0 50 50" fill="none" xmlns="http://www.w3.org/2000/svg">
<g clip-path="url(#clip0_1736_29339)">
<path fill-rule="evenodd" clip-rule="evenodd" d="M39.5898 25C39.5898 22.1276 41.9214 19.7949 44.7949 19.7949C47.6674 19.7949 50 22.1276 50 25C50 27.8724 47.6674 30.2051 44.7949 30.2051C41.9214 30.2051 39.5898 27.8724 39.5898 25Z" fill="#D1D1D1"/>
<path fill-rule="evenodd" clip-rule="evenodd" d="M35.3161 35.3161C37.3483 33.2849 40.6473 33.2849 42.6795 35.3161C44.7107 37.3483 44.7107 40.6473 42.6795 42.6795C40.6473 44.7107 37.3483 44.7107 35.3161 42.6795C33.2849 40.6473 33.2849 37.3483 35.3161 35.3161Z" fill="#C9C9C9"/>
<path d="M25 50C27.8747 50 30.2051 47.6696 30.2051 44.7949C30.2051 41.9203 27.8747 39.5898 25 39.5898C22.1253 39.5898 19.7949 41.9203 19.7949 44.7949C19.7949 47.6696 22.1253 50 25 50Z" fill="#A4A4A4"/>
<path fill-rule="evenodd" clip-rule="evenodd" d="M14.6856 35.3161C16.7168 37.3483 16.7168 40.6473 14.6856 42.6795C12.6534 44.7107 9.35445 44.7107 7.3222 42.6795C5.29104 40.6473 5.29104 37.3483 7.3222 35.3161C9.35445 33.2849 12.6534 33.2849 14.6856 35.3161Z" fill="#6D6D6D"/>
<path fill-rule="evenodd" clip-rule="evenodd" d="M10.4102 25C10.4102 27.8724 8.07858 30.2051 5.20508 30.2051C2.33262 30.2051 0 27.8724 0 25C0 22.1276 2.33262 19.7949 5.20508 19.7949C8.07858 19.7949 10.4102 22.1276 10.4102 25Z" fill="#4A4949"/>
<path fill-rule="evenodd" clip-rule="evenodd" d="M14.6854 14.6855C12.6531 16.7167 9.35421 16.7167 7.32197 14.6855C5.29079 12.6533 5.29079 9.35434 7.32197 7.32209C9.35421 5.29091 12.6531 5.29091 14.6854 7.32209C16.7165 9.35434 16.7165 12.6533 14.6854 14.6855Z" fill="#2D2B2B"/>
<path fill-rule="evenodd" clip-rule="evenodd" d="M42.699 14.7165C40.6668 16.7476 37.3679 16.7476 35.3356 14.7165C33.3045 12.6843 33.3045 9.38529 35.3356 7.35309C37.3679 5.32192 40.6668 5.32192 42.699 7.35309C44.7302 9.38529 44.7302 12.6843 42.699 14.7165Z" fill="#FDFDFF"/>
<path d="M25 10.4102C27.8747 10.4102 30.2051 8.07977 30.2051 5.20508C30.2051 2.33039 27.8747 0 25 0C22.1253 0 19.7949 2.33039 19.7949 5.20508C19.7949 8.07977 22.1253 10.4102 25 10.4102Z" fill="black"/>
</g>
<defs>
<clipPath id="clip0_1736_29339">
<rect width="50" height="50" fill="white"/>
</clipPath>
</defs>
</svg>
